<svg width="1000" height="110" viewBox="0 0 1000 110" fill="none" xmlns="http://www.w3.org/2000/svg">
<path d="M973.259 85.382C969.501 85.382 965.943 84.6225 962.586 83.1036C959.228 81.5846 956.55 79.2262 954.551 76.0284V83.943H935.964V0H954.551V32.4979C956.47 29.3801 959.108 27.0217 962.466 25.4227C965.904 23.8238 969.501 23.0244 973.259 23.0244C978.535 23.0244 983.172 24.3834 987.169 27.1016C991.166 29.7398 994.284 33.4173 996.523 38.1341C998.841 42.771 1000 48.0873 1000 54.0833C1000 59.8394 998.921 65.1158 996.763 69.9125C994.604 74.6293 991.526 78.3868 987.529 81.1849C983.532 83.983 978.775 85.382 973.259 85.382ZM967.742 69.193C970.38 69.193 972.699 68.5534 974.697 67.2743C976.696 65.9952 978.255 64.2364 979.374 61.9979C980.494 59.6795 981.053 57.0413 981.053 54.0833C981.053 50.8055 980.414 48.0873 979.134 45.9288C977.935 43.6903 976.336 42.0115 974.338 40.8922C972.339 39.773 970.141 39.2134 967.742 39.2134C965.264 39.2134 963.025 39.813 961.027 41.0122C959.028 42.2113 957.429 43.9302 956.23 46.1686C955.031 48.4071 954.431 51.0853 954.431 54.2032C954.431 57.0812 954.991 59.6795 956.11 61.9979C957.229 64.2364 958.788 65.9952 960.787 67.2743C962.866 68.5534 965.184 69.193 967.742 69.193Z" fill="#E1EAF4"/>
<path d="M888.374 85.3821C884.936 85.3821 881.738 84.7025 878.78 83.3434C875.822 81.9044 873.424 79.8658 871.585 77.2276C869.826 74.5094 868.947 71.2317 868.947 67.3943C868.947 62.9973 870.106 59.4397 872.424 56.7215C874.743 53.9234 877.821 51.8848 881.658 50.6057C885.576 49.3266 889.853 48.687 894.49 48.687H907.92C907.92 46.6084 907.561 44.7696 906.841 43.1707C906.122 41.5718 905.042 40.3327 903.603 39.4533C902.164 38.4939 900.365 38.0142 898.207 38.0142C895.968 38.0142 893.93 38.4939 892.091 39.4533C890.252 40.4126 889.093 42.0515 888.613 44.3699H870.746C871.065 39.9729 872.544 36.2155 875.183 33.0976C877.821 29.8997 881.179 27.4214 885.256 25.6626C889.413 23.9038 893.85 23.0244 898.567 23.0244C904.083 23.0244 908.92 24.0637 913.077 26.1423C917.314 28.1409 920.592 31.059 922.91 34.8964C925.229 38.6538 926.388 43.2107 926.388 48.5671V63.7967C926.388 65.5555 926.628 66.9146 927.107 67.8739C927.667 68.8333 929.066 69.313 931.304 69.313V83.943C927.467 83.943 924.269 83.7032 921.711 83.2235C919.153 82.7439 916.994 81.8645 915.235 80.5853C913.477 79.2262 911.878 77.2676 910.439 74.7093C907.8 78.2269 904.683 80.9051 901.085 82.7439C897.487 84.5027 893.25 85.3821 888.374 85.3821ZM894.849 71.2317C897.168 71.2317 899.286 70.752 901.205 69.7926C903.204 68.7534 904.802 67.3143 906.002 65.4756C907.201 63.6368 907.8 61.5582 907.8 59.2398V58.5203H896.408C894.809 58.5203 893.33 58.7601 891.971 59.2398C890.612 59.6395 889.533 60.3191 888.733 61.2784C887.934 62.1578 887.534 63.397 887.534 64.9959C887.534 67.3143 888.294 68.9532 889.813 69.9126C891.332 70.792 893.011 71.2317 894.849 71.2317Z" fill="#E1EAF4"/>
<path d="M844.508 83.943V0H862.975V83.943H844.508Z" fill="#E1EAF4"/>
<path d="M756.906 83.943V0H775.373V48.2073L793.001 24.4634H815.786L791.322 53.9634L816.625 83.943H793.721L775.373 58.6402V83.943H756.906Z" fill="white"/>
<path d="M715.098 83.943V24.4634H733.566V33.6972C735.644 30.6592 738.282 28.1409 741.48 26.1423C744.678 24.0637 748.356 23.0244 752.513 23.0244V42.5711H747.356C742.719 42.5711 739.242 43.6104 736.923 45.689C734.685 47.7676 733.566 51.2053 733.566 56.002V83.943H715.098Z" fill="white"/>
<path d="M677.855 85.3821C672.099 85.3821 666.822 84.1829 662.025 81.7845C657.309 79.3062 653.511 75.7486 650.633 71.1117C647.835 66.4749 646.436 60.8387 646.436 54.2032C646.436 47.8875 647.795 42.4112 650.513 37.7744C653.311 33.1375 657.109 29.54 661.906 26.9817C666.702 24.3435 672.099 23.0244 678.095 23.0244C684.49 23.0244 690.046 24.3835 694.763 27.1016C699.48 29.7398 703.158 33.4174 705.796 38.1341C708.434 42.771 709.753 48.1274 709.753 54.2032C709.753 60.5189 708.354 66.0352 705.556 70.752C702.758 75.3889 698.96 78.9864 694.164 81.5447C689.367 84.1029 683.931 85.3821 677.855 85.3821ZM677.975 69.313C680.613 69.313 682.891 68.6734 684.81 67.3943C686.729 66.1151 688.208 64.3164 689.247 61.9979C690.366 59.6795 690.926 57.0413 690.926 54.0833C690.926 50.8055 690.326 48.0874 689.127 45.9289C688.008 43.6904 686.449 42.0115 684.45 40.8923C682.532 39.773 680.373 39.2134 677.975 39.2134C675.496 39.2134 673.258 39.813 671.259 41.0122C669.34 42.2114 667.822 43.9302 666.702 46.1687C665.583 48.4072 665.023 51.0854 665.023 54.2032C665.023 57.1612 665.543 59.7994 666.582 62.1179C667.702 64.3563 669.221 66.1151 671.139 67.3943C673.058 68.6734 675.336 69.313 677.975 69.313Z" fill="white"/>
<path d="M572.013 83.943L555.824 24.4634H574.052L582.446 67.0345L592.519 24.4634H611.826L621.899 66.7946L630.174 24.4634H647.442L631.253 83.943H611.107L601.753 45.3292L592.04 83.943H572.013Z" fill="white"/>
<path d="M494.115 83.943V24.4634H512.582V33.6972C514.661 30.6592 517.299 28.1409 520.497 26.1423C523.695 24.0637 527.372 23.0244 531.529 23.0244V42.5711H526.373C521.736 42.5711 518.258 43.6104 515.94 45.689C513.701 47.7676 512.582 51.2053 512.582 56.002V83.943H494.115Z" fill="white"/>
<path d="M451.068 85.382C446.112 85.382 441.914 84.3027 438.477 82.1442C435.119 79.9057 432.561 76.8678 430.802 73.0304C429.123 69.1131 428.284 64.6761 428.284 59.7194V24.4634H446.631V57.441C446.631 61.1185 447.551 64.1165 449.389 66.4349C451.228 68.7533 453.986 69.9125 457.664 69.9125C461.341 69.9125 464.099 68.7533 465.938 66.4349C467.777 64.1165 468.696 61.1185 468.696 57.441V24.4634H487.164V83.943H468.696V76.508C466.618 79.466 464.059 81.7045 461.021 83.2235C457.984 84.6625 454.666 85.382 451.068 85.382Z" fill="white"/>
<path d="M391.76 85.3821C386.004 85.3821 380.727 84.1829 375.931 81.7845C371.214 79.3062 367.416 75.7486 364.538 71.1117C361.74 66.4749 360.341 60.8387 360.341 54.2032C360.341 47.8875 361.7 42.4112 364.419 37.7744C367.217 33.1375 371.014 29.54 375.811 26.9817C380.608 24.3435 386.004 23.0244 392 23.0244C398.395 23.0244 403.952 24.3835 408.668 27.1016C413.385 29.7398 417.063 33.4174 419.701 38.1341C422.339 42.771 423.658 48.1274 423.658 54.2032C423.658 60.5189 422.259 66.0352 419.461 70.752C416.663 75.3889 412.866 78.9864 408.069 81.5447C403.272 84.1029 397.836 85.3821 391.76 85.3821ZM391.88 69.313C394.518 69.313 396.797 68.6734 398.715 67.3943C400.634 66.1151 402.113 64.3164 403.152 61.9979C404.271 59.6795 404.831 57.0413 404.831 54.0833C404.831 50.8055 404.232 48.0874 403.032 45.9289C401.913 43.6904 400.354 42.0115 398.355 40.8923C396.437 39.773 394.278 39.2134 391.88 39.2134C389.402 39.2134 387.163 39.813 385.164 41.0122C383.246 42.2114 381.727 43.9302 380.608 46.1687C379.488 48.4072 378.929 51.0854 378.929 54.2032C378.929 57.1612 379.448 59.7994 380.488 62.1179C381.607 64.3563 383.126 66.1151 385.045 67.3943C386.963 68.6734 389.242 69.313 391.88 69.313Z" fill="white"/>
<path d="M307.354 110.325L320.185 81.9044L295.962 24.4634H316.348L330.139 61.6381L343.809 24.4634H363.476L327.021 110.325H307.354Z" fill="white"/>
<path d="M198.907 83.943L182.718 24.4634H200.946L209.34 67.0345L219.413 24.4634H238.72L248.793 66.7946L257.068 24.4634H274.336L258.147 83.943H238.001L228.647 45.3292L218.934 83.943H198.907Z" fill="white"/>
<path d="M152.742 85.3821C146.986 85.3821 141.71 84.1829 136.913 81.7845C132.196 79.3062 128.399 75.7486 125.521 71.1117C122.723 66.4749 121.324 60.8387 121.324 54.2032C121.324 47.8875 122.683 42.4112 125.401 37.7744C128.199 33.1375 131.996 29.54 136.793 26.9817C141.59 24.3435 146.986 23.0244 152.982 23.0244C159.378 23.0244 164.934 24.3835 169.651 27.1016C174.368 29.7398 178.045 33.4174 180.683 38.1341C183.322 42.771 184.641 48.1274 184.641 54.2032C184.641 60.5189 183.242 66.0352 180.444 70.752C177.645 75.3889 173.848 78.9864 169.051 81.5447C164.255 84.1029 158.818 85.3821 152.742 85.3821ZM152.862 69.313C155.501 69.313 157.779 68.6734 159.698 67.3943C161.616 66.1151 163.095 64.3164 164.135 61.9979C165.254 59.6795 165.814 57.0413 165.814 54.0833C165.814 50.8055 165.214 48.0874 164.015 45.9289C162.896 43.6904 161.337 42.0115 159.338 40.8923C157.419 39.773 155.261 39.2134 152.862 39.2134C150.384 39.2134 148.146 39.813 146.147 41.0122C144.228 42.2114 142.709 43.9302 141.59 46.1687C140.471 48.4072 139.911 51.0854 139.911 54.2032C139.911 57.1612 140.431 59.7994 141.47 62.1179C142.589 64.3563 144.108 66.1151 146.027 67.3943C147.946 68.6734 150.224 69.313 152.862 69.313Z" fill="white"/>
<path d="M57.8877 83.943V0H76.3552V31.6585C78.5137 28.6206 81.072 26.4221 84.0299 25.063C86.9879 23.7039 90.3057 23.0244 93.9832 23.0244C101.418 23.0244 107.054 25.4227 110.892 30.2195C114.729 34.9363 116.648 41.0921 116.648 48.6869V83.943H98.3003V50.9654C98.3003 47.2079 97.3809 44.21 95.5421 41.9715C93.7034 39.6531 90.9452 38.4939 87.2677 38.4939C83.6702 38.4939 80.952 39.6931 79.1133 42.0914C77.2745 44.4098 76.3552 47.3678 76.3552 50.9654V83.943H57.8877Z" fill="white"/>
<path d="M27.941 85.3821C23.624 85.3821 19.3469 84.6226 15.1097 83.1036C10.9526 81.5047 7.47492 79.1863 4.67682 76.1483C1.87872 73.0304 0.319783 69.1931 0 64.6362H18.3475C18.6673 66.8746 19.7066 68.6334 21.4654 69.9126C23.3042 71.1117 25.3828 71.7113 27.7012 71.7113C29.6199 71.7113 31.2987 71.3516 32.7378 70.6321C34.2567 69.8326 35.0162 68.5535 35.0162 66.7947C35.0162 65.3557 34.3367 64.2364 32.9776 63.437C31.6185 62.5576 30.0196 61.878 28.1809 61.3984C26.4221 60.9187 24.8631 60.5189 23.504 60.1992C19.7466 59.2398 16.229 58.1606 12.9512 56.9614C9.67343 55.7622 6.99525 54.0034 4.91666 51.6849C2.91802 49.3665 1.9187 46.0887 1.9187 41.8516C1.9187 37.7744 3.03794 34.3367 5.27642 31.5386C7.5149 28.7405 10.5129 26.622 14.2703 25.1829C18.0278 23.7439 22.145 23.0244 26.6219 23.0244C33.6571 23.0244 39.4532 24.7832 44.0101 28.3008C48.647 31.7385 51.3651 36.855 52.1646 43.6504H35.0162C34.6165 41.252 33.6172 39.5332 32.0183 38.4939C30.4193 37.3747 28.4207 36.815 26.0223 36.815C24.2635 36.815 22.7046 37.1748 21.3455 37.8943C19.9864 38.5339 19.3069 39.7331 19.3069 41.4919C19.3069 42.9309 19.9465 44.0901 21.2256 44.9695C22.5847 45.769 24.1436 46.3686 25.9024 46.7683C27.6612 47.168 29.2601 47.5677 30.6992 47.9675C34.5366 48.9268 38.0542 50.0461 41.252 51.3252C44.5298 52.6043 47.2079 54.4431 49.2865 56.8414C51.3651 59.1599 52.4444 62.5176 52.5243 66.9146C52.5243 70.8319 51.3651 74.1897 49.0467 76.9878C46.8082 79.7059 43.8103 81.7845 40.0528 83.2235C36.3753 84.6626 32.338 85.3821 27.941 85.3821Z" fill="white"/>
</svg>
