<svg width="400" height="318" viewBox="0 0 400 318" fill="none" xmlns="http://www.w3.org/2000/svg">
<g clip-path="url(#clip0_63_39)">
<path d="M252.575 119.065L220.934 2.8125H256.56L272.966 86.0173L292.654 2.8125H330.389L350.077 85.5485L366.249 2.8125H400L368.359 119.065H328.983L310.702 43.5946L291.717 119.065H252.575Z" fill="white"/>
<path d="M118.228 170.628L143.307 115.08L95.9619 2.8125H135.806L162.76 75.4702L189.479 2.8125H227.918L156.666 170.628H118.228Z" fill="white"/>
<path d="M54.6105 121.877C46.1728 121.877 37.8133 120.393 29.5318 117.424C21.4067 114.299 14.6097 109.768 9.14081 103.83C3.67195 97.7363 0.625013 90.2362 0 81.3297H35.8601C36.4851 85.7048 38.5164 89.1424 41.954 91.6424C45.5478 93.9862 49.6104 95.1581 54.1417 95.1581C57.8918 95.1581 61.1731 94.455 63.9856 93.0487C66.9545 91.4862 68.4389 88.9861 68.4389 85.5486C68.4389 82.736 67.1107 80.5485 64.4544 78.9859C61.7981 77.2672 58.6731 75.939 55.0792 75.0015C51.6417 74.064 48.5947 73.2827 45.9384 72.6577C38.5945 70.7827 31.7194 68.6732 25.313 66.3294C18.9066 63.9856 13.6721 60.5481 9.60957 56.0167C5.70324 51.4854 3.75007 45.079 3.75007 36.7976C3.75007 28.8287 5.93762 22.1098 10.3127 16.641C14.6878 11.1721 20.5473 7.03139 27.8912 4.21883C35.2351 1.40628 43.2821 0 52.0323 0C65.7826 0 77.1109 3.43757 86.0173 10.3127C95.08 17.0316 100.393 27.0318 101.955 40.3133H68.4389C67.6576 35.6257 65.7044 32.2663 62.5794 30.235C59.4543 28.0474 55.548 26.9537 50.8604 26.9537C47.4228 26.9537 44.3759 27.6568 41.7196 29.0631C39.0633 30.3131 37.7351 32.6569 37.7351 36.0945C37.7351 38.907 38.9851 41.1727 41.4852 42.8915C44.1415 44.454 47.1884 45.6259 50.626 46.4072C54.0636 47.1884 57.1886 47.9697 60.0012 48.751C67.5014 50.626 74.3765 52.8135 80.6266 55.3136C87.033 57.8136 92.2675 61.4075 96.33 66.0951C100.393 70.6264 102.502 77.189 102.658 85.783C102.658 93.4394 100.393 100.002 95.8613 105.471C91.4862 110.783 85.6267 114.846 78.2828 117.659C71.0952 120.471 63.2044 121.877 54.6105 121.877Z" fill="white"/>
<path d="M282.411 318.102C275.067 318.102 268.114 316.618 261.551 313.649C254.989 310.68 249.754 306.071 245.848 299.821V315.29H209.519V151.224H245.848V214.741C249.598 208.647 254.754 204.038 261.317 200.913C268.036 197.788 275.067 196.225 282.411 196.225C292.724 196.225 301.787 198.881 309.599 204.194C317.412 209.35 323.506 216.538 327.881 225.757C332.412 234.82 334.678 245.21 334.678 256.929C334.678 268.18 332.568 278.492 328.35 287.867C324.131 297.086 318.115 304.43 310.302 309.899C302.49 315.368 293.193 318.102 282.411 318.102ZM271.63 286.461C276.786 286.461 281.317 285.211 285.224 282.711C289.13 280.211 292.177 276.774 294.364 272.398C296.552 267.867 297.646 262.711 297.646 256.929C297.646 250.523 296.396 245.21 293.896 240.992C291.552 236.616 288.427 233.335 284.521 231.148C280.614 228.96 276.317 227.866 271.63 227.866C266.786 227.866 262.411 229.038 258.504 231.382C254.598 233.726 251.473 237.085 249.129 241.46C246.785 245.835 245.613 251.07 245.613 257.164C245.613 262.789 246.707 267.867 248.895 272.398C251.082 276.774 254.129 280.211 258.036 282.711C262.098 285.211 266.63 286.461 271.63 286.461Z" fill="white" fill-opacity="0.5"/>
<path d="M116.505 318.102C109.786 318.102 103.536 316.774 97.7543 314.118C91.9729 311.305 87.2853 307.321 83.6915 302.164C80.2539 296.852 78.5352 290.445 78.5352 282.945C78.5352 274.351 80.8008 267.398 85.3322 262.086C89.8635 256.617 95.8792 252.632 103.379 250.132C111.036 247.632 119.395 246.382 128.458 246.382H154.709C154.709 242.32 154.005 238.726 152.599 235.601C151.193 232.476 149.083 230.054 146.271 228.335C143.458 226.46 139.943 225.522 135.724 225.522C131.349 225.522 127.364 226.46 123.77 228.335C120.177 230.21 117.911 233.413 116.973 237.944H82.0508C82.6759 229.351 85.5665 222.007 90.7229 215.913C95.8793 209.663 102.442 204.819 110.411 201.381C118.536 197.944 127.208 196.225 136.427 196.225C147.208 196.225 156.662 198.256 164.787 202.319C173.068 206.225 179.475 211.928 184.006 219.428C188.537 226.772 190.803 235.679 190.803 246.148V275.914C190.803 279.352 191.272 282.008 192.209 283.883C193.303 285.758 196.038 286.695 200.413 286.695V315.29C192.912 315.29 186.662 314.821 181.662 313.883C176.662 312.946 172.443 311.227 169.006 308.727C165.568 306.071 162.443 302.243 159.631 297.242C154.474 304.118 148.38 309.352 141.349 312.946C134.318 316.384 126.036 318.102 116.505 318.102ZM129.161 290.445C133.693 290.445 137.833 289.508 141.583 287.633C145.49 285.602 148.615 282.789 150.958 279.195C153.302 275.601 154.474 271.539 154.474 267.008V265.601H132.208C129.083 265.601 126.192 266.07 123.536 267.008C120.88 267.789 118.77 269.117 117.208 270.992C115.645 272.711 114.864 275.133 114.864 278.258C114.864 282.789 116.348 285.992 119.317 287.867C122.286 289.586 125.567 290.445 129.161 290.445Z" fill="white" fill-opacity="0.5"/>
<path d="M30.7695 315.29V151.224H66.864V315.29H30.7695Z" fill="white" fill-opacity="0.5"/>
</g>
<defs>
<clipPath id="clip0_63_39">
<rect width="400" height="318" fill="white"/>
</clipPath>
</defs>
</svg>
