<?xml version="1.0" encoding="UTF-8" standalone="no"?>
<!DOCTYPE svg PUBLIC "-//W3C//DTD SVG 1.1//EN" "http://www.w3.org/Graphics/SVG/1.1/DTD/svg11.dtd">
<svg width="100%" height="100%" viewBox="0 0 255 27" version="1.1" xmlns="http://www.w3.org/2000/svg" xmlns:xlink="http://www.w3.org/1999/xlink" xml:space="preserve" xmlns:serif="http://www.serif.com/" style="fill-rule:evenodd;clip-rule:evenodd;stroke-linejoin:round;stroke-miterlimit:2;">
    <g id="amedia_stiftelsen_logo_sort">
        <g id="Layer_1">
            <g id="Group_2">
                <g id="Path_8" transform="matrix(1,0,0,1,-518.6,-490.761)">
                    <path d="M524.509,516.879C522.959,516.955 521.432,516.471 520.209,515.517C519.138,514.616 518.545,513.267 518.604,511.869C518.563,510.356 519.229,508.908 520.404,507.954C521.891,506.875 523.635,506.204 525.462,506.009L531.055,505.158L531.055,507.979L526.191,508.709C525.338,508.804 524.52,509.104 523.808,509.584C523.276,510.005 522.978,510.657 523.008,511.335C522.965,511.945 523.242,512.535 523.738,512.891C524.343,513.285 525.06,513.473 525.781,513.426C526.911,513.47 528.023,513.136 528.942,512.478C529.727,511.961 530.203,511.083 530.207,510.143L530.693,512.843C530.282,514.059 529.466,515.098 528.383,515.786C527.245,516.562 525.885,516.946 524.509,516.879ZM530.735,516.539C530.616,516.034 530.527,515.522 530.468,515.007C530.392,514.329 530.359,513.646 530.368,512.964L530.222,512.964L530.222,504.452C530.281,503.664 529.988,502.888 529.422,502.336C528.739,501.801 527.879,501.54 527.014,501.606C526.142,501.559 525.275,501.762 524.514,502.19C523.913,502.562 523.497,503.173 523.371,503.868L519.115,503.868C519.286,502.241 520.156,500.767 521.498,499.831C523.17,498.72 525.16,498.182 527.164,498.299C529.169,498.167 531.156,498.763 532.757,499.977C534.088,501.25 534.785,503.052 534.657,504.889L534.657,513.011C534.662,513.589 534.703,514.165 534.779,514.738C534.861,515.361 534.983,515.979 535.144,516.586L530.744,516.586L530.735,516.539Z" style="fill-rule:nonzero;"/>
                </g>
                <g id="Path_9" transform="matrix(1,0,0,1,-579.297,-490.61)">
                    <path d="M598.8,516.388L598.8,498.465L603.129,498.465L603.129,502.7L603.229,502.7L603.229,516.391L598.8,516.388ZM610.862,516.388L610.862,504.812C610.879,504.688 610.888,504.563 610.888,504.438C610.888,502.938 609.654,501.704 608.154,501.704C608.043,501.704 607.932,501.711 607.822,501.724C607.005,501.7 606.197,501.902 605.487,502.308C604.791,502.712 604.213,503.29 603.809,503.986C603.387,504.76 603.177,505.633 603.201,506.515L602.739,502.405C603.31,501.131 604.229,500.043 605.39,499.268C606.577,498.48 607.976,498.073 609.4,498.1C610.986,498.06 612.531,498.615 613.729,499.656C614.786,500.718 615.358,502.171 615.31,503.669L615.31,516.363L610.86,516.363L610.862,516.388ZM622.924,516.388L622.924,504.812C623,503.96 622.718,503.113 622.146,502.477C621.542,501.935 620.742,501.662 619.933,501.723C618.279,501.662 616.724,502.538 615.92,503.985C615.506,504.762 615.304,505.634 615.336,506.514L614.558,502.404C615.122,501.118 616.053,500.027 617.233,499.267C618.465,498.478 619.904,498.072 621.367,498.1C622.983,498.062 624.555,498.635 625.767,499.705C626.86,500.834 627.441,502.366 627.372,503.936L627.372,516.363L622.922,516.363L622.924,516.388Z" style="fill-rule:nonzero;"/>
                </g>
                <g id="Path_10" transform="matrix(1,0,0,1,-674.655,-490.534)">
                    <path d="M734.236,516.652C732.508,516.685 730.8,516.275 729.275,515.46C727.89,514.683 726.745,513.538 725.968,512.153C724.414,509.109 724.414,505.497 725.968,502.453C726.737,501.076 727.874,499.939 729.251,499.17C730.761,498.366 732.453,497.963 734.163,498C735.784,497.945 737.39,498.332 738.808,499.119C740.108,499.839 741.172,500.921 741.872,502.232C742.626,503.671 743.002,505.277 742.966,506.901C742.966,508.676 742.966,507.533 742.917,507.801C742.917,508.069 742.844,508.36 742.817,508.652L727.548,508.652L727.548,505.564L739.44,505.564L738.54,506.415C738.646,505.049 738.228,503.692 737.373,502.621C736.533,501.747 735.35,501.284 734.139,501.356C732.781,501.318 731.473,501.879 730.564,502.888C729.611,504.167 729.145,505.746 729.251,507.338C729.14,508.915 729.607,510.479 730.564,511.738C731.513,512.793 732.893,513.357 734.309,513.27C735.165,513.384 736.034,513.195 736.765,512.735C737.458,512.399 738.004,511.819 738.297,511.106L742.48,511.106C741.938,512.722 740.9,514.127 739.513,515.119C737.97,516.194 736.115,516.733 734.236,516.652Z" style="fill-rule:nonzero;"/>
                </g>
                <g id="Path_11" transform="matrix(1,0,0,1,-736.411,-468.738)">
                    <path d="M820.5,494.516L820.5,490.479L820.865,490.552C820.575,491.85 819.778,492.981 818.652,493.689C817.406,494.487 815.948,494.894 814.469,494.856C812.964,494.883 811.48,494.487 810.189,493.713C808.966,492.935 807.994,491.82 807.389,490.503C806.052,487.356 806.06,483.794 807.413,480.654C808.685,477.865 811.523,476.104 814.587,476.204C816.075,476.156 817.54,476.582 818.77,477.42C819.866,478.225 820.601,479.432 820.813,480.776L820.351,480.825L820.351,469.2L824.801,469.2L824.801,494.516L820.472,494.516L820.5,494.516ZM815.758,491.233C817.067,491.292 818.333,490.744 819.187,489.75C820.1,488.545 820.549,487.051 820.452,485.543C820.55,484.034 820.082,482.542 819.139,481.36C818.279,480.374 817.017,479.828 815.71,479.877C814.411,479.83 813.159,480.376 812.31,481.36C811.372,482.553 810.906,484.051 811,485.566C810.902,487.075 811.37,488.567 812.313,489.749C813.179,490.739 814.449,491.285 815.763,491.233L815.758,491.233Z" style="fill-rule:nonzero;"/>
                </g>
                <g id="Path_12" transform="matrix(1,0,0,1,-803.919,-467.3)">
                    <path d="M895.6,472.188L895.6,467.3L900.415,467.3L900.415,472.188L895.6,472.188ZM895.819,493.078L895.819,475.155L900.245,475.155L900.245,493.078L895.819,493.078Z" style="fill-rule:nonzero;"/>
                </g>
                <g id="Path_13" transform="matrix(1,0,0,1,-825.564,-490.761)">
                    <path d="M930.109,516.879C928.559,516.955 927.032,516.471 925.809,515.517C924.738,514.616 924.145,513.267 924.204,511.869C924.163,510.356 924.829,508.908 926.004,507.954C927.491,506.875 929.235,506.204 931.062,506.009L936.655,505.158L936.655,507.979L931.791,508.709C930.938,508.804 930.12,509.104 929.408,509.584C928.876,510.005 928.578,510.657 928.608,511.335C928.565,511.945 928.842,512.535 929.338,512.891C929.943,513.285 930.66,513.473 931.381,513.426C932.511,513.47 933.623,513.136 934.542,512.478C935.327,511.961 935.803,511.083 935.807,510.143L936.293,512.843C935.882,514.059 935.066,515.098 933.983,515.786C932.849,516.565 931.49,516.949 930.116,516.88L930.109,516.879ZM936.359,516.539C936.24,516.034 936.15,515.522 936.091,515.007C936.015,514.329 935.982,513.646 935.991,512.964L935.845,512.964L935.845,504.452C935.904,503.664 935.611,502.888 935.045,502.336C934.362,501.801 933.502,501.54 932.637,501.606C931.765,501.559 930.898,501.762 930.137,502.19C929.536,502.562 929.12,503.173 928.994,503.868L924.738,503.868C924.909,502.241 925.779,500.767 927.121,499.831C928.793,498.72 930.783,498.182 932.787,498.299C934.792,498.167 936.779,498.763 938.38,499.977C939.711,501.25 940.408,503.052 940.28,504.889L940.28,513.011C940.285,513.589 940.326,514.165 940.402,514.738C940.484,515.361 940.606,515.979 940.767,516.586L936.367,516.586L936.359,516.539Z" style="fill-rule:nonzero;"/>
                </g>
            </g>
            <g id="Path_14" transform="matrix(1,0,0,1,-887.471,-490.686)">
                <path d="M1013.51,516.8C1011.63,516.899 1009.77,516.359 1008.24,515.268C1006.9,514.217 1006.09,512.637 1006,510.939L1008.7,510.939C1008.81,511.988 1009.36,512.943 1010.21,513.565C1011.21,514.221 1012.39,514.545 1013.59,514.489C1014.61,514.565 1015.63,514.318 1016.51,513.784C1017.19,513.355 1017.59,512.593 1017.55,511.79C1017.61,511.19 1017.38,510.597 1016.94,510.185C1016.27,509.588 1015.45,509.192 1014.56,509.042L1011.69,508.312C1010.3,508.026 1009.02,507.352 1007.99,506.367C1007.18,505.527 1006.73,504.398 1006.75,503.23C1006.77,501.815 1007.4,500.475 1008.48,499.558C1009.84,498.588 1011.48,498.108 1013.15,498.196C1014.84,498.111 1016.52,498.609 1017.89,499.606C1019.11,500.542 1019.86,501.963 1019.96,503.497L1017.26,503.497C1017.13,502.608 1016.65,501.808 1015.92,501.284C1015.07,500.733 1014.06,500.461 1013.05,500.506C1012.11,500.445 1011.18,500.674 1010.37,501.163C1009.75,501.569 1009.39,502.272 1009.43,503.011C1009.38,503.618 1009.63,504.211 1010.11,504.592C1010.77,505.147 1011.57,505.531 1012.42,505.711L1015.24,506.489C1016.66,506.798 1017.97,507.507 1019.01,508.532C1019.82,509.415 1020.27,510.572 1020.27,511.772C1020.27,513.226 1019.61,514.604 1018.47,515.511C1016.99,516.44 1015.26,516.89 1013.51,516.8L1013.51,516.8Z" style="fill-rule:nonzero;"/>
            </g>
            <g id="Path_15" transform="matrix(1,0,0,1,-933.486,-475.474)">
                <path d="M1066.8,485.712L1066.8,483.329L1078.64,483.329L1078.64,485.712L1066.8,485.712ZM1076.19,501.568C1074.62,501.707 1073.06,501.217 1071.86,500.206C1070.89,499.139 1070.4,497.726 1070.5,496.291L1070.5,479.146L1073.32,478.1L1073.32,496.266C1073.25,497.08 1073.53,497.886 1074.1,498.479C1074.83,499.012 1075.72,499.262 1076.62,499.184C1077.79,499.184 1077.5,499.184 1077.84,499.084C1078.12,499.038 1078.4,498.965 1078.67,498.865L1078.67,501.248C1078.35,501.365 1078.01,501.439 1077.67,501.467C1077.18,501.539 1076.68,501.572 1076.19,501.567L1076.19,501.568Z" style="fill-rule:nonzero;"/>
            </g>
            <g id="Path_16" transform="matrix(1,0,0,1,-977.683,-468.738)">
                <path d="M1125.2,472.507L1125.2,469.2L1128.43,469.2L1128.43,472.507L1125.2,472.507ZM1125.39,494.515L1125.39,476.593L1128.22,476.593L1128.22,494.516L1125.39,494.515Z" style="fill-rule:nonzero;"/>
            </g>
            <g id="Path_17" transform="matrix(1,0,0,1,-994.182,-467.678)">
                <path d="M1147,477.917L1147,475.534L1157.87,475.534L1157.87,477.917L1147,477.917ZM1150.7,493.457L1150.7,473C1150.62,471.576 1151.14,470.183 1152.13,469.158C1153.34,468.152 1154.9,467.662 1156.46,467.796C1158.41,467.796 1157.29,467.82 1157.58,467.869C1157.82,467.905 1158.04,467.962 1158.26,468.039L1158.26,470.252C1158.04,470.191 1157.81,470.142 1157.58,470.106C1157.28,470.057 1156.97,470.032 1156.66,470.033C1156.52,470.012 1156.39,470.002 1156.25,470.002C1154.74,470.002 1153.5,471.244 1153.5,472.753C1153.5,472.876 1153.51,472.999 1153.52,473.121L1153.52,493.427L1150.7,493.427L1150.7,493.457Z" style="fill-rule:nonzero;"/>
            </g>
            <g id="Path_18" transform="matrix(1,0,0,1,-1031.57,-475.474)">
                <path d="M1196.4,485.712L1196.4,483.329L1208.24,483.329L1208.24,485.712L1196.4,485.712ZM1205.79,501.568C1204.22,501.707 1202.66,501.217 1201.46,500.206C1200.49,499.139 1200,497.726 1200.1,496.291L1200.1,479.146L1202.92,478.1L1202.92,496.266C1202.85,497.08 1203.13,497.886 1203.69,498.479C1204.42,499.012 1205.32,499.262 1206.22,499.184C1207.39,499.184 1207.1,499.184 1207.44,499.084C1207.72,499.038 1208,498.965 1208.27,498.865L1208.27,501.248C1207.94,501.365 1207.61,501.439 1207.27,501.467C1206.78,501.539 1206.28,501.572 1205.79,501.567L1205.79,501.568Z" style="fill-rule:nonzero;"/>
            </g>
            <g id="Path_19" transform="matrix(1,0,0,1,-1070.85,-490.534)">
                <path d="M1257.03,516.652C1253.84,516.723 1250.87,514.951 1249.42,512.104C1247.93,509.052 1247.93,505.477 1249.42,502.425C1250.12,501.064 1251.2,499.933 1252.53,499.166C1253.93,498.371 1255.52,497.968 1257.13,497.999C1258.65,497.952 1260.15,498.331 1261.46,499.093C1262.69,499.811 1263.68,500.878 1264.31,502.157C1265,503.606 1265.34,505.197 1265.31,506.802L1265.31,507.459C1265.29,507.696 1265.26,507.932 1265.2,508.164L1250.42,508.164L1250.42,505.805L1263.5,505.805L1262.58,507.094C1262.69,505.324 1262.18,503.568 1261.14,502.133C1260.15,500.958 1258.66,500.31 1257.13,500.382C1255.49,500.331 1253.92,501.008 1252.83,502.23C1251.69,503.622 1251.1,505.393 1251.2,507.191C1251.11,509.033 1251.69,510.848 1252.83,512.298C1253.91,513.578 1255.53,514.288 1257.2,514.219C1259.29,514.365 1261.25,513.198 1262.12,511.301L1264.79,511.301C1264.26,512.881 1263.22,514.246 1261.85,515.192C1260.44,516.165 1258.77,516.675 1257.06,516.651L1257.03,516.652Z" style="fill-rule:nonzero;"/>
            </g>
            <g id="Path_20" transform="matrix(1,0,0,1,-1132.53,-468.814)">
                <rect x="1329.8" y="469.3" width="2.821" height="25.291" style="fill-rule:nonzero;"/>
            </g>
            <g id="Path_21" transform="matrix(1,0,0,1,-1149.4,-490.686)">
                <path d="M1359.62,516.8C1357.73,516.899 1355.87,516.359 1354.34,515.268C1353,514.217 1352.19,512.637 1352.1,510.939L1354.8,510.939C1354.91,511.988 1355.46,512.943 1356.31,513.565C1357.31,514.221 1358.49,514.545 1359.69,514.489C1360.71,514.565 1361.73,514.318 1362.61,513.784C1363.29,513.355 1363.69,512.593 1363.65,511.79C1363.71,511.19 1363.48,510.597 1363.05,510.185C1362.37,509.588 1361.55,509.192 1360.66,509.042L1357.79,508.312C1356.4,508.026 1355.12,507.352 1354.09,506.367C1353.28,505.527 1352.83,504.398 1352.85,503.23C1352.87,501.815 1353.5,500.475 1354.58,499.558C1355.94,498.588 1357.58,498.108 1359.25,498.196C1360.94,498.111 1362.62,498.609 1363.99,499.606C1365.21,500.542 1365.96,501.963 1366.06,503.497L1363.36,503.497C1363.23,502.608 1362.75,501.808 1362.02,501.284C1361.17,500.733 1360.16,500.461 1359.15,500.506C1358.21,500.445 1357.28,500.674 1356.47,501.163C1355.86,501.569 1355.5,502.272 1355.53,503.011C1355.48,503.618 1355.73,504.211 1356.21,504.592C1356.88,505.147 1357.67,505.531 1358.52,505.711L1361.34,506.489C1362.76,506.798 1364.07,507.507 1365.11,508.532C1365.92,509.415 1366.37,510.572 1366.37,511.772C1366.37,513.226 1365.71,514.604 1364.57,515.511C1363.09,516.446 1361.36,516.897 1359.61,516.8L1359.62,516.8Z" style="fill-rule:nonzero;"/>
            </g>
            <g id="Path_22" transform="matrix(1,0,0,1,-1199.96,-490.534)">
                <path d="M1427.63,516.652C1424.43,516.723 1421.47,514.951 1420.02,512.104C1418.53,509.052 1418.53,505.477 1420.02,502.425C1420.72,501.064 1421.8,499.933 1423.13,499.166C1424.53,498.371 1426.12,497.968 1427.73,497.999C1429.25,497.952 1430.75,498.331 1432.06,499.093C1433.29,499.811 1434.28,500.878 1434.9,502.157C1435.6,503.606 1435.94,505.197 1435.9,506.802L1435.9,507.459C1435.89,507.696 1435.86,507.932 1435.81,508.164L1421.02,508.164L1421.02,505.805L1434.1,505.805L1433.18,507.094C1433.29,505.324 1432.78,503.568 1431.74,502.133C1430.75,500.958 1429.27,500.31 1427.73,500.382C1426.09,500.331 1424.52,501.008 1423.43,502.23C1422.29,503.622 1421.7,505.393 1421.8,507.191C1421.71,509.033 1422.29,510.848 1423.43,512.298C1424.51,513.578 1426.13,514.288 1427.81,514.219C1429.89,514.365 1431.85,513.198 1432.72,511.301L1435.39,511.301C1434.86,512.881 1433.82,514.246 1432.45,515.192C1431.04,516.162 1429.37,516.672 1427.66,516.651L1427.63,516.652Z" style="fill-rule:nonzero;"/>
            </g>
            <g id="Path_23" transform="matrix(1,0,0,1,-1261.64,-490.534)">
                <path d="M1500.4,516.312L1500.4,498.389L1503.03,498.389L1503.03,502.6L1503.2,502.6L1503.2,516.316L1500.4,516.312ZM1513.22,516.312L1513.22,504.566C1513.3,503.449 1512.93,502.344 1512.19,501.502C1511.37,500.767 1510.28,500.398 1509.18,500.481C1508.09,500.442 1507.01,500.712 1506.07,501.259C1505.18,501.765 1504.45,502.506 1503.95,503.399C1503.43,504.378 1503.17,505.476 1503.2,506.585L1502.73,502.329C1503.32,501.014 1504.3,499.911 1505.53,499.168C1506.82,498.381 1508.31,497.977 1509.81,498.001C1511.47,497.97 1513.07,498.541 1514.34,499.606C1515.49,500.695 1516.11,502.231 1516.04,503.813L1516.04,516.288L1513.22,516.288L1513.22,516.312Z" style="fill-rule:nonzero;"/>
            </g>
        </g>
    </g>
</svg>
